<svg width="64" height="64" xmlns="http://www.w3.org/2000/svg">

 <g>
  <title>background</title>
  <rect fill="none" id="canvas_background" height="402" width="582" y="-1" x="-1"/>
 </g>
 <g>
  <title>Layer 1</title>
  <path stroke="null" id="svg_1" d="m32,0.563547c-17.333989,0 -31.436453,14.102464 -31.436453,31.436453c0,17.333989 14.102464,31.436453 31.436453,31.436453c17.333989,0 31.436453,-14.102464 31.436453,-31.436453c0,-17.333989 -14.102464,-31.436453 -31.436453,-31.436453zm7.817959,32.543174l-5.11447,0c0,8.171249 0,18.231775 0,18.231775l-7.578634,0c0,0 0,-9.963023 0,-18.231775l-3.602542,0l0,-6.442789l3.602542,0l0,-4.167299c0,-2.984602 1.418224,-7.648279 7.648279,-7.648279l5.613381,0.021527l0,6.254114c0,0 -3.412601,0 -4.076128,0c-0.663526,0 -1.605632,0.331763 -1.605632,1.755052l0,3.786151l5.774197,0l-0.660994,6.441522z"/>
 </g>
</svg>