<svg width="64" height="64" xmlns="http://www.w3.org/2000/svg">

 <g>
  <title>background</title>
  <rect fill="none" id="canvas_background" height="402" width="582" y="-1" x="-1"/>
 </g>
 <g>
  <title>Layer 1</title>
  <path stroke="null" id="svg_2" d="m32.065951,39.398322c4.114162,0 7.468277,-3.348108 7.468277,-7.465273c0,-1.625237 -0.531732,-3.125802 -1.413445,-4.351488c-1.357869,-1.880588 -3.562903,-3.113785 -6.05333,-3.113785c-2.491929,0 -4.695462,1.231695 -6.054832,3.112283c-0.883215,1.225687 -1.410441,2.726252 -1.411943,4.351488c-0.001502,4.117166 3.34961,7.466775 7.465273,7.466775z"/>
  <polygon stroke="null" id="svg_3" points="45.68504339456558,24.704992294311523 45.68504339456558,18.778274536132812 45.68504339456558,17.896238327026367 44.79731374979019,17.89908218383789 38.873439848423004,17.917577743530273 38.89762884378433,24.72775650024414 "/>
  <path stroke="null" id="svg_4" d="m32.269813,1.103193c-17.185203,0 -31.16662,13.981417 -31.16662,31.16662c0,17.185203 13.981417,31.16662 31.16662,31.16662c17.185203,0 31.16662,-13.981417 31.16662,-31.16662c0,-17.185203 -13.981417,-31.16662 -31.16662,-31.16662zm17.725027,27.529719l0,14.512452c0,3.780017 -3.073225,6.851986 -6.850731,6.851986l-21.748591,0c-3.778761,0 -6.850731,-3.07197 -6.850731,-6.851986l0,-14.512452l0,-7.236139c0,-3.778761 3.07197,-6.850731 6.850731,-6.850731l21.747336,0c3.778761,0 6.851986,3.07197 6.851986,6.850731l0,7.236139z"/>
  <path stroke="null" id="svg_5" d="m42.424113,31.430075c0,5.611584 -4.564932,10.18047 -10.179152,10.18047s-10.179152,-4.568886 -10.179152,-10.18047c0,-1.349838 0.268913,-2.640358 0.748738,-3.81883l-5.556219,0l0,15.238409c0,1.969393 1.598978,3.564417 3.567053,3.564417l22.835204,0c1.968075,0 3.567053,-1.595024 3.567053,-3.564417l0,-15.238409l-5.557537,0c0.481144,1.178472 0.754011,2.468991 0.754011,3.81883z"/>
 </g>
</svg>