<svg width="64" height="64" xmlns="http://www.w3.org/2000/svg">

 <g>
  <title>background</title>
  <rect fill="none" id="canvas_background" height="402" width="582" y="-1" x="-1"/>
 </g>
 <g>
  <title>Layer 1</title>
  <path stroke="null" id="svg_1" d="m32.202364,0.563547c-17.445572,0 -31.638817,14.193245 -31.638817,31.638817c0,17.445572 14.193245,31.638817 31.638817,31.638817c17.445572,0 31.638817,-14.193245 31.638817,-31.638817c0,-17.445572 -14.193245,-31.638817 -31.638817,-31.638817zm14.114231,24.397547c0.014019,0.313508 0.021665,0.629565 0.021665,0.945622c0,9.623165 -7.324107,20.718289 -20.720838,20.718289c-4.112562,0 -7.940928,-1.204329 -11.162668,-3.271443c0.569667,0.067544 1.149529,0.101954 1.737038,0.101954c3.412904,0 6.551807,-1.164822 9.044578,-3.117238c-3.186057,-0.058623 -5.876363,-2.16397 -6.802868,-5.058183c0.443499,0.086661 0.901017,0.131266 1.36873,0.131266c0.663974,0 1.308832,-0.08921 1.919281,-0.254885c-3.331341,-0.669072 -5.840679,-3.611714 -5.840679,-7.139316c0,-0.030586 0,-0.062447 0.001274,-0.091758c0.981305,0.544178 2.104072,0.87298 3.296931,0.909938c-1.952415,-1.303734 -3.238308,-3.533974 -3.238308,-6.05988c0,-1.335595 0.358113,-2.587078 0.985129,-3.662691c3.590049,4.406954 8.957917,7.304991 15.008875,7.610852c-0.124893,-0.533983 -0.18734,-1.088357 -0.18734,-1.660573c0,-4.020803 3.259973,-7.282051 7.282051,-7.282051c2.093876,0 3.986394,0.884449 5.314342,2.299058c1.660573,-0.326252 3.217917,-0.930329 4.626154,-1.767624c-0.545453,1.701354 -1.698805,3.127433 -3.203899,4.029724c1.474507,-0.17587 2.878921,-0.565844 4.182655,-1.145706c-0.973659,1.45794 -2.209849,2.741283 -3.632105,3.764644z"/>
 </g>
</svg>